<?xml version="1.0" encoding="UTF-8"?>
<svg width="16px" height="16px" viewBox="0 0 16 16" version="1.1" xmlns="http://www.w3.org/2000/svg" xmlns:xlink="http://www.w3.org/1999/xlink">
    <!-- Generator: Sketch 50.2 (55047) - http://www.bohemiancoding.com/sketch -->
    <title>ic_rating_like</title>
    <desc>Created with Sketch.</desc>
    <defs></defs>
    <g id="Symbols" stroke="none" stroke-width="1" fill="none" fill-rule="evenodd" fill-opacity="0.26">
        <g id="like" fill="#000000">
            <path d="M1.5,7 L2.5,7 C2.77614237,7 3,7.22385763 3,7.5 L3,13.5 C3,13.7761424 2.77614237,14 2.5,14 L1.5,14 C1.22385763,14 1,13.7761424 1,13.5 L1,7.5 C1,7.22385763 1.22385763,7 1.5,7 Z M4.31157437,6.00927037 L7.04123134,1.71015368 C7.3372457,1.24393107 7.95516084,1.10595002 8.42138345,1.40196438 C8.63279959,1.53619684 8.78615224,1.7448722 8.85111863,1.98672857 C8.95037288,2.35623153 9,2.72279413 9,3.08641637 C9,4.02880546 8.83333333,5 8.5,6 L14.5,6 C14.7761424,6 15,6.22385763 15,6.5 L15,7.5 C15,8.48644317 14.7703304,9.4593392 14.3291796,10.3416408 L12.7763932,13.4472136 C12.6070012,13.7859976 12.2607381,14 11.881966,14 L5,14 C4.44771525,14 4,13.5522847 4,13 L4,7.08128664 C4,6.70161768 4.10806872,6.32979177 4.31157437,6.00927037 Z" id="Combined-Shape"></path>
        </g>
    </g>
</svg>