<svg width="12" height="12" xmlns="http://www.w3.org/2000/svg">
  <defs>
    <linearGradient x1="50%" y1="0%" x2="50%" y2="100%" id="a">
      <stop stop-color="#FFD211" offset="0%"/>
      <stop stop-color="#FFAD27" offset="100%"/>
    </linearGradient>
  </defs>
  <g fill="none" fill-rule="evenodd">
    <path d="M6 10.145L2.908 11.85c-.487.268-.809.04-.72-.498l.597-3.656L.268 5.123c-.385-.394-.256-.78.288-.864l3.457-.526L5.573.417C5.81-.083 6-.033 6 .51v9.634z" fill="url(#a)"/>
    <path d="M2.715 11.5L6 9.687 9.285 11.5c.197.109.168.129.133-.083l-.63-3.855 2.658-2.718c.154-.157.154-.155-.062-.188l-3.668-.56L6.064.588c-.091-.194-.037-.194-.128 0L4.284 4.096l-3.667.559c-.222.034-.22.027-.063.188L3.213 7.56l-.631 3.855c-.034.21-.062.19.133.083z" stroke="#FFB427" stroke-width=".8"/>
  </g>
</svg>