<svg width="407" height="365" viewBox="0 0 407 365" fill="none" xmlns="http://www.w3.org/2000/svg">
<path d="M4.30521 3.33048C-0.928387 7.45391 -1.56276 17.2867 3.35364 22.2031C6.20833 25.0578 8.58724 25.375 32.6935 25.375C55.8482 25.375 58.8615 25.6922 60.2888 28.0711C62.9849 33.3047 114.528 226.789 113.576 228.375C113.101 229.327 111.197 229.961 109.453 229.961C104.061 229.961 94.3865 235.829 88.5185 242.648C73.7693 259.935 78.0513 286.737 97.5583 298.949C104.378 303.073 107.074 303.707 119.444 304.341C131.815 304.817 133.401 305.134 132.449 307.513C131.815 308.941 131.022 314.016 130.546 319.091C128.484 343.99 147.674 364.131 173.049 363.814C184.943 363.655 192.239 360.959 200.803 353.505C209.367 345.893 214.283 334.633 214.283 322.421C214.283 317.029 213.649 310.844 212.697 308.623L211.111 304.5H247.588H284.065L282.479 308.623C280.417 313.857 280.417 327.496 282.479 334.95C285.016 343.99 293.58 353.981 303.096 359.215C315.466 365.876 330.374 365.876 342.744 359.215C352.26 353.981 360.824 343.99 363.361 334.95C365.423 327.337 365.423 313.857 363.361 308.306C361.934 304.817 362.251 303.707 364.789 301.962C371.45 297.205 370.022 284.359 362.41 280.87C359.555 279.601 323.713 279.125 236.486 279.125C169.56 279.125 113.418 278.649 111.99 278.173C109.294 277.063 104.854 269.609 104.854 265.803C104.854 264.534 106.598 261.362 108.66 258.984L112.466 254.543L236.011 253.75L359.714 252.957L365.423 248.516C368.754 245.979 372.401 242.331 373.67 240.428C377.001 235.512 406.182 108.32 406.182 99.1211C406.182 90.0813 402.534 83.4203 395.08 78.8211L389.529 75.332L244.892 74.8563L100.096 74.3805L97.8755 66.1336C96.4482 61.693 92.9591 48.6883 89.9458 37.4281C80.5888 2.53751 76.7826 0.158601 33.3279 7.58469e-06C10.649 7.58469e-06 8.11146 0.317195 4.30521 3.33048ZM158.776 101.341C158.776 101.976 160.203 113.236 161.947 126.082C163.692 138.928 165.119 150.188 165.119 150.823C165.119 151.616 155.128 152.25 142.916 152.25H120.872L118.968 145.43C112.149 119.58 107.867 103.562 107.233 101.817C106.757 100.39 112.466 99.9141 132.608 99.9141C147.04 99.9141 158.776 100.548 158.776 101.341ZM234.901 126.082V152.25H213.015H190.97L188.274 130.364C186.847 118.47 185.261 106.734 184.785 104.196L183.833 99.9141H209.367H234.901V126.082ZM310.55 104.989C310.074 107.844 308.329 119.738 306.902 131.157L304.206 152.25H282.32H260.276V126.082V99.9141H285.809H311.343L310.55 104.989ZM380.807 101.341C380.807 102.293 378.269 113.712 375.256 126.875C372.243 140.038 369.705 151.14 369.705 151.616C369.705 151.933 360.665 152.25 349.722 152.25H329.74L330.533 147.016C331.008 144.32 332.594 132.426 334.18 120.848L336.876 99.9141H358.762C371.45 99.9141 380.807 100.548 380.807 101.341ZM172.256 203.317L175.586 228.375H159.41C148.467 228.375 142.758 227.741 141.806 226.313C140.22 224.41 128.643 182.7 128.643 179.37C128.643 178.101 134.511 177.625 148.784 177.942L168.926 178.418L172.256 203.317ZM234.901 203V228.375H218.248C202.389 228.375 201.596 228.216 200.961 224.727C199.693 219.494 195.252 184.127 195.252 180.638C195.252 177.784 196.679 177.625 215.076 177.625H234.901V203ZM297.545 202.524L294.215 227.582L277.245 228.058L260.276 228.534V203V177.625H280.576H300.876L297.545 202.524ZM363.361 178.259C363.361 180.321 352.419 225.362 351.467 226.63C350.991 227.741 344.33 228.375 335.449 228.375C318.004 228.375 319.431 231.071 322.92 203.476C326.726 174.295 324.03 177.625 345.123 177.625C355.115 177.625 363.361 177.942 363.361 178.259ZM179.393 306.879C193.19 314.016 191.763 332.888 177.014 337.805C167.34 340.977 155.604 332.412 155.604 321.945C155.604 313.857 164.168 304.659 171.939 304.5C173.525 304.5 176.855 305.61 179.393 306.879ZM330.057 306.879C343.696 313.857 342.269 333.047 327.836 337.805C314.356 342.245 301.193 326.386 308.012 313.857C309.915 310.051 318.638 304.5 322.603 304.5C324.189 304.5 327.519 305.61 330.057 306.879Z" fill="white"/>
</svg>
