<svg width="37" height="37" viewBox="0 0 37 37" fill="none" xmlns="http://www.w3.org/2000/svg">
<path d="M11.338 0.566004C5.48801 2.24179 1.28332 6.44648 0.216916 11.7176C-0.453396 14.9168 0.460666 18.7863 2.53254 21.4676C3.11145 22.2293 3.56848 22.9605 3.56848 23.0824C3.56848 23.2043 3.02004 24.7887 2.31926 26.6168C1.64895 28.4754 1.13098 30.3035 1.19192 30.7301C1.34426 31.9793 2.62395 31.9184 5.70129 30.4863L8.38254 29.2371L10.1193 30.3035C13.4404 32.284 15.3294 32.741 20.631 32.7715L25.3536 32.8019L29.3146 34.691C35.5302 37.6769 36.17 37.2504 34.0677 31.4918C33.3669 29.6637 32.8185 28.0793 32.8185 27.9574C32.8185 27.8355 33.2755 27.1043 33.8544 26.3426C37.3888 21.7418 37.1755 15.3738 33.306 10.4988C32.788 9.82851 31.8739 8.48788 31.295 7.48241C29.345 4.22226 25.5364 1.51054 21.3927 0.444129C18.9247 -0.195715 13.7146 -0.134777 11.338 0.566004ZM22.0935 3.58241C25.5364 4.89257 27.8521 6.87304 29.3755 9.82851C30.0763 11.1691 30.2286 11.7785 30.2286 13.8504C30.2286 15.8613 30.0763 16.5926 29.4364 17.9637C26.9075 23.2652 19.5341 26.4035 13.1052 24.941C11.6732 24.6058 11.5513 24.6363 8.38254 26.1293C6.55442 26.9824 5.09192 27.5613 5.09192 27.4394C5.09192 27.2871 5.42707 26.2512 5.85363 25.1543C6.2802 24.0269 6.61535 22.8387 6.61535 22.473C6.61535 22.1379 6.12785 21.2848 5.51848 20.6144C1.83176 16.5316 1.8927 11.0168 5.70129 7.05585C9.66223 2.94257 16.5482 1.48007 22.0935 3.58241ZM33.5802 18.6644C33.5802 21.2238 32.6966 23.4785 30.8685 25.4894C30.2591 26.1598 29.7716 27.0129 29.7716 27.348C29.7716 27.7137 30.1068 28.9019 30.5333 30.0293C30.9599 31.1262 31.295 32.1621 31.295 32.3144C31.295 32.4363 29.8325 31.8574 28.0654 31.0348C24.8966 29.5723 24.7443 29.5113 23.3122 29.816C19.8997 30.5777 15.756 30.0293 12.77 28.5058L11.338 27.7441L14.8724 27.9269C19.1075 28.1402 21.9716 27.5918 25.2013 26.0074C28.8575 24.1488 32.2091 20.1574 32.7271 16.9277C33.0318 15.0691 33.5497 16.166 33.5802 18.6644Z" fill="#ECECEC"/>
<path d="M7.07239 12.3269C6.64583 12.723 6.31067 13.4238 6.31067 13.8504C6.31067 14.8558 7.59036 16.1355 8.59583 16.1355C9.60129 16.1355 10.881 14.8558 10.881 13.8504C10.881 13.4238 10.5458 12.723 10.1193 12.3269C9.72317 11.9004 9.02239 11.5652 8.59583 11.5652C8.16926 11.5652 7.46848 11.9004 7.07239 12.3269Z" fill="#ECECEC"/>
<path d="M14.9943 12.3269C14.5677 12.723 14.2325 13.4238 14.2325 13.8504C14.2325 14.8558 15.5122 16.1355 16.5177 16.1355C17.5232 16.1355 18.8029 14.8558 18.8029 13.8504C18.8029 12.8449 17.5232 11.5652 16.5177 11.5652C16.0911 11.5652 15.3904 11.9004 14.9943 12.3269Z" fill="#ECECEC"/>
<path d="M22.9161 12.3269C22.4896 12.723 22.1544 13.4238 22.1544 13.8504C22.1544 14.8558 23.4036 16.1355 24.3786 16.1355C25.5365 16.1355 26.7247 15.0387 26.7247 13.9723C26.7247 12.8449 25.506 11.5652 24.4396 11.5652C24.013 11.5652 23.3122 11.9004 22.9161 12.3269Z" fill="#ECECEC"/>
</svg>
