<svg width="263" height="263" viewBox="0 0 263 263" fill="none" xmlns="http://www.w3.org/2000/svg">
<path d="M124.491 2.39463C119.577 5.24489 111.812 11.9283 111.812 13.206C111.812 14.7785 100.509 19.6928 97.0695 19.6928C91.7621 19.5945 82.9165 18.1202 81.7371 17.1374C81.0491 16.6459 78.3954 16.3511 75.84 16.3511C73.1863 16.3511 69.8446 16.3511 68.4686 16.3511C66.9943 16.3511 64.9304 17.5305 63.1612 19.2996C60.8024 21.7567 60.6058 22.4447 61.687 23.7224C62.7681 25.0001 62.6698 25.1967 61.4904 24.7053C59.8196 24.0173 59.3281 25.1967 55.6916 36.4012C51.6619 49.1782 49.2048 51.4388 34.2655 56.2547C29.8427 57.6307 25.7147 59.3998 25.0267 59.9895C24.3387 60.6775 23.3559 61.0707 22.7662 60.8741C22.2747 60.6775 20.6039 61.8569 19.0313 63.4295C16.6725 65.8866 16.3777 67.066 16.2794 72.57C16.1811 76.1082 16.4759 79.4499 16.8691 80.0396C17.2622 80.6293 18.2451 85.1504 19.0313 90.163L20.4073 99.0086L17.9502 104.119C16.4759 106.871 12.8394 111.687 9.79258 114.832C6.74575 117.978 3.7972 121.516 3.20749 122.794C2.71607 123.973 1.63494 125.545 0.946942 126.332C-0.0359057 127.315 -0.232475 128.985 0.258949 132.229C1.14351 138.224 2.22464 139.993 9.10458 147.266C12.4463 150.706 15.9845 155.031 16.9674 156.898C18.0485 158.766 19.3262 160.633 19.8176 160.928C20.7022 161.616 19.9159 168.889 17.9502 178.03C17.2622 181.273 16.3777 186.384 15.9845 189.332C15.3948 194.64 15.4931 194.935 19.1296 198.768C21.5868 201.323 24.437 203.19 27.2873 203.977C36.7226 206.63 45.5682 210.464 48.3202 212.822C50.5808 214.886 54.7087 221.963 55.2984 224.715C55.8882 227.565 58.247 234.248 58.935 234.936C59.3281 235.526 59.7213 236.706 59.7213 237.787C59.7213 238.77 61.1955 241.128 62.9647 242.996C66.0115 246.239 66.6012 246.436 72.5966 246.534C76.0365 246.534 81.7371 245.748 85.2753 244.765C94.7107 242.21 100.804 242.504 106.112 245.65C108.569 247.124 110.829 248.893 111.124 249.679C111.419 250.465 115.35 253.807 119.872 257.149C127.636 262.948 128.226 263.243 132.255 262.653C134.614 262.358 137.956 261.08 139.627 259.901C143.853 257.051 152.994 248.5 152.404 248.008C152.207 247.714 153.19 247.32 154.566 246.927C155.942 246.534 157.023 245.846 157.023 245.355C157.023 244.765 157.908 244.372 158.989 244.372C159.972 244.372 161.937 243.88 163.215 243.291C164.984 242.504 167.736 242.701 175.304 244.372C187.492 247.026 194.273 247.32 196.73 245.355C202.038 240.932 203.021 239.261 206.657 228.351C211.375 214.1 213.635 211.446 224.053 208.105C237.519 203.78 241.646 201.913 243.317 199.259C244.202 197.883 245.48 196.114 246.168 195.426C246.856 194.738 247.445 193.559 247.445 192.969C247.445 190.512 245.381 178.718 243.809 172.329C242.629 167.12 242.531 165.154 243.416 163.189C244.005 161.813 244.497 159.847 244.497 158.864C244.497 157.783 244.89 156.898 245.283 156.898C245.774 156.898 246.561 156.014 247.052 155.031C247.544 153.95 250.59 150.313 253.834 146.873C260.91 139.404 262.09 137.536 262.778 132.032C263.367 128.101 263.073 127.315 258.257 121.024C255.505 117.388 251.672 112.867 249.902 111.098C243.514 104.906 242.04 98.6154 244.398 87.6076C246.954 76.0099 247.15 74.0442 246.659 69.9163C246.364 66.5746 245.48 64.9038 242.924 62.5449C241.155 60.9724 238.796 59.5964 237.813 59.5964C236.831 59.5964 235.553 59.105 235.061 58.6135C234.472 58.0238 233.194 57.4341 232.113 57.1393C228.28 56.353 218.451 52.6182 216.092 51.0456C214.618 50.161 212.849 48.4902 212.063 47.4091C210.294 44.8537 206.461 35.7132 205.576 31.6835C204.2 25.295 201.35 20.3808 197.615 17.9236C193.487 15.1717 191.718 15.2699 172.257 18.7099C163.608 20.2825 163.313 20.2825 159.382 18.3168C157.22 17.1374 152.011 13.206 147.883 9.47114C139.135 1.60835 137.465 0.527221 132.55 0.0357964C129.995 -0.160773 127.734 0.428936 124.491 2.39463ZM176.484 82.3985C177.172 83.0864 177.663 83.1847 177.663 82.6933C177.663 82.3002 178.548 82.8899 179.629 84.1676C183.364 88.4921 181.988 96.1583 176.484 102.252C175.501 103.235 175.009 104.513 175.304 105.004C175.599 105.397 175.402 105.79 174.813 105.79C174.321 105.79 173.044 107.363 172.061 109.23C170.488 112.375 157.318 132.131 156.04 133.31C154.861 134.489 141.691 154.638 140.708 156.898C140.02 158.274 138.644 160.338 137.465 161.518C136.383 162.697 135.401 163.877 135.401 164.171C135.401 164.958 126.358 177.931 124.491 179.7C121.248 182.944 114.564 181.764 109.355 177.047C107.783 175.671 105.424 173.803 104.244 172.919C102.967 172.132 101.984 171.051 101.984 170.462C101.984 169.97 96.8729 164.565 90.5827 158.373C80.6559 148.446 79.0834 146.578 78.6902 143.138C78.1005 138.716 79.7714 133.801 82.1302 132.72C83.1131 132.425 85.4719 131.737 87.6342 131.344C91.9587 130.46 92.2535 130.656 108.274 146.48C116.923 155.031 117.12 155.129 118.102 152.869C118.692 151.591 119.577 150.018 120.166 149.527C120.756 148.937 122.329 146.775 123.705 144.613C133.14 129.772 140.315 118.862 143.263 114.734C145.229 112.08 147.686 108.247 148.669 106.282C149.75 104.218 152.011 101.073 153.682 99.2052C155.352 97.3377 157.81 93.8978 159.087 91.4407C162.625 84.3642 166.459 81.219 171.275 81.219C173.535 81.219 175.796 81.7105 176.484 82.3985Z" fill="#1596EC"/>
</svg>
